<svg xmlns="http://www.w3.org/2000/svg" width="170" height="48" viewBox="0 0 170 48">
  <defs>
    <style>
      .cls-1 {
        fill: #fff;
      }
    </style>
  </defs>
  <g id="Macy_s_Logo_White" data-name="Macy&apos;s Logo White" transform="translate(-41.582 -7.741)">
    <path id="Path_78" data-name="Path 78" class="cls-1" d="M209.132,34.8A12.231,12.231,0,0,0,204.783,33l-.168-.044a8.142,8.142,0,0,1-3.1-1.37,2.931,2.931,0,0,1-.963-2.267,3.551,3.551,0,0,1,.2-1.354,3.16,3.16,0,0,1,.68-1.107,3.448,3.448,0,0,1,1.252-.833,4.665,4.665,0,0,1,1.722-.3,4.059,4.059,0,0,1,1.526.241,3.14,3.14,0,0,1,1.137.7,3.065,3.065,0,0,1,.694,1.088,4.48,4.48,0,0,1,.271,1.539l.017,1.012h2.929l-.013-1.045a6.417,6.417,0,0,0-1.865-4.617,6.737,6.737,0,0,0-4.723-1.788,7.145,7.145,0,0,0-4.586,1.559,6.237,6.237,0,0,0-2.165,4.981,5.558,5.558,0,0,0,2.063,4.5,12.9,12.9,0,0,0,4.462,1.954,6.955,6.955,0,0,1,3.5,1.578,3.82,3.82,0,0,1,1,2.758l0,.146a4.426,4.426,0,0,1-.3,1.634,4.062,4.062,0,0,1-.855,1.337,3.986,3.986,0,0,1-1.367.918,4.664,4.664,0,0,1-1.748.326,4.613,4.613,0,0,1-3.314-1.219,4.544,4.544,0,0,1-1.275-3.257l-.017-1.015-2.88.016-.053,1.3a6.916,6.916,0,0,0,.46,2.506,6.722,6.722,0,0,0,1.352,2.136,7.512,7.512,0,0,0,2.578,1.772,8.276,8.276,0,0,0,3.149.621,7.479,7.479,0,0,0,2.918-.583,7.062,7.062,0,0,0,2.4-1.676,6.887,6.887,0,0,0,1.474-2.4,7,7,0,0,0,.4-2.8,6.452,6.452,0,0,0-2.438-5.146"/>
    <path id="Path_79" data-name="Path 79" class="cls-1" d="M196.57,11.367h-3.818l3.093,2.248-1.157,3.623L197.742,15l3.073,2.245-1.171-3.633,3.085-2.245h-3.811L197.75,7.741Z"/>
    <path id="Path_80" data-name="Path 80" class="cls-1" d="M185.113,42.164,177.447,22.85h-3.18l.822,2.089c.067.171,2.184,5.542,4.287,10.867l4.05,10.255-4.227,9.68h3.265L195.68,24.961l.848-2.11h-3.279Z"/>
    <path id="Path_81" data-name="Path 81" class="cls-1" d="M156.058,28.394a10.5,10.5,0,0,1,3.126-2.045,9.9,9.9,0,0,1,3.675-.634,9.377,9.377,0,0,1,4.837,1.378,8.572,8.572,0,0,1,3.607,4.45l.242.681H174.7l-.48-1.369a11.592,11.592,0,0,0-5.04-6.223A12.828,12.828,0,0,0,162.7,22.85a12.178,12.178,0,0,0-8.732,3.533,12.328,12.328,0,0,0-3.514,8.785,12.564,12.564,0,0,0,3.17,8.387,12.8,12.8,0,0,0,16.206,1.736,11.629,11.629,0,0,0,4.343-5.676l.5-1.378h-3.179l-.234.7a8.183,8.183,0,0,1-2.879,3.774,9.736,9.736,0,0,1-9.241,1.162,9.111,9.111,0,0,1-2.979-1.93,8.935,8.935,0,0,1-2.054-3.049,9.914,9.914,0,0,1-.716-3.761,10.335,10.335,0,0,1,.744-3.825,7.919,7.919,0,0,1,1.926-2.909"/>
    <path id="Path_82" data-name="Path 82" class="cls-1" d="M144.625,22.85v4.03a11.412,11.412,0,0,0-2.185-1.917,12.454,12.454,0,0,0-7-2.113,11.753,11.753,0,0,0-9.1,3.922,12.686,12.686,0,0,0,0,16.709,11.757,11.757,0,0,0,9.106,3.924,12.234,12.234,0,0,0,6.455-1.716,11.318,11.318,0,0,0,2.734-2.338V47.4h2.933V22.85Zm.011,13.85a8.461,8.461,0,0,1-.449,1.69,9.2,9.2,0,0,1-3.315,4.5,9.663,9.663,0,0,1-12.322-1.275,9.909,9.909,0,0,1-2.428-6.489,9.46,9.46,0,0,1,2.661-6.728,9.254,9.254,0,0,1,6.653-2.684,9.51,9.51,0,0,1,5.287,1.566,8.867,8.867,0,0,1,3.367,4.189,8.371,8.371,0,0,1,.488,1.621,9.56,9.56,0,0,1,.168,1.827,9.005,9.005,0,0,1-.111,1.781"/>
    <path id="Path_83" data-name="Path 83" class="cls-1" d="M117.55,25.282a7.822,7.822,0,0,0-2.882-1.833,10.674,10.674,0,0,0-7.474.176,8.735,8.735,0,0,0-3.1,2.176,8.54,8.54,0,0,0-.89,1.164,6.259,6.259,0,0,0-.768-1.128A7.9,7.9,0,0,0,99.378,23.6,10.263,10.263,0,0,0,95.4,22.85a9.12,9.12,0,0,0-3.782.82,8.468,8.468,0,0,0-2.561,1.819V22.85H86.126V47.4h2.933V33.613a11.494,11.494,0,0,1,.446-3.428,6.658,6.658,0,0,1,1.367-2.458,5.068,5.068,0,0,1,1.947-1.5,5.555,5.555,0,0,1,2.554-.516,7.816,7.816,0,0,1,2.987.629,5.3,5.3,0,0,1,2.017,1.586,5.908,5.908,0,0,1,1,1.945,11.51,11.51,0,0,1,.375,3.294L101.744,47.4h2.932V33.817a15.857,15.857,0,0,1,.275-3.575,6.125,6.125,0,0,1,1.207-2.385,5.173,5.173,0,0,1,2.262-1.644,7.771,7.771,0,0,1,5.2-.088,4.723,4.723,0,0,1,1.813,1.169,6,6,0,0,1,1.424,2.5,13.857,13.857,0,0,1,.508,4.019V47.4h2.93V33.817a16.817,16.817,0,0,0-.659-4.958,8.48,8.48,0,0,0-2.085-3.577"/>
    <path id="Path_84" data-name="Path 84" class="cls-1" d="M62.408,7.741l-4.892,15.11H41.582L54.49,32.244,49.6,47.358l12.788-9.352,12.864,9.4L70.337,32.218l12.851-9.367H67.306Z"/>
  </g>
</svg>
