<svg id="Macy_s_Logo_Black_Red" data-name="Macy&apos;s Logo Black + Red" xmlns="http://www.w3.org/2000/svg" xmlns:xlink="http://www.w3.org/1999/xlink" width="102" height="135" viewBox="0 0 102 135">
  <defs>
    <style>
      .cls-1 {
        fill: none;
      }

      .cls-2 {
        clip-path: url(#clip-path);
      }

      .cls-3 {
        fill: #1a1818;
      }

      .cls-4 {
        fill: #d6001e;
      }
    </style>
    <clipPath id="clip-path">
      <rect id="Rectangle_4" data-name="Rectangle 4" class="cls-1" width="102" height="135"/>
    </clipPath>
  </defs>
  <g id="Group_8" data-name="Group 8">
    <g id="Group_7" data-name="Group 7" class="cls-2">
      <path id="Path_106" data-name="Path 106" class="cls-3" d="M99.991,116.383a10.074,10.074,0,0,0-3.566-1.472l-.137-.035a6.712,6.712,0,0,1-2.545-1.115,2.379,2.379,0,0,1-.79-1.845,2.87,2.87,0,0,1,.16-1.1,2.551,2.551,0,0,1,.559-.9,2.823,2.823,0,0,1,1.026-.678,3.853,3.853,0,0,1,1.412-.247,3.345,3.345,0,0,1,1.251.2,2.582,2.582,0,0,1,.932.572,2.5,2.5,0,0,1,.568.886,3.625,3.625,0,0,1,.222,1.252l.014.823h2.4l-.012-.851a5.2,5.2,0,0,0-1.529-3.756,5.547,5.547,0,0,0-3.872-1.455,5.888,5.888,0,0,0-3.76,1.268,5.059,5.059,0,0,0-1.775,4.052,4.51,4.51,0,0,0,1.692,3.663,10.64,10.64,0,0,0,3.658,1.589,5.726,5.726,0,0,1,2.869,1.284,3.09,3.09,0,0,1,.817,2.244l0,.119a3.572,3.572,0,0,1-.247,1.329,3.233,3.233,0,0,1-1.821,1.835,3.857,3.857,0,0,1-1.433.265,3.8,3.8,0,0,1-2.718-.991,3.682,3.682,0,0,1-1.045-2.65l-.014-.826-2.361.013-.043,1.061a5.585,5.585,0,0,0,.377,2.038,5.476,5.476,0,0,0,1.108,1.738,6.156,6.156,0,0,0,2.113,1.441,6.839,6.839,0,0,0,2.583.505,6.17,6.17,0,0,0,2.392-.474,5.79,5.79,0,0,0,1.971-1.364,5.579,5.579,0,0,0,1.209-1.951,5.662,5.662,0,0,0,.329-2.277,5.237,5.237,0,0,0-2-4.186"/>
      <path id="Path_107" data-name="Path 107" class="cls-3" d="M90.042,98.275H86.911l2.536,1.829-.948,2.947,2.5-1.82,2.52,1.826-.961-2.955,2.53-1.827H91.966l-.957-2.949Z"/>
      <path id="Path_108" data-name="Path 108" class="cls-3" d="M72.413,106.668h2.534l6.04,16.5,6.046-16.52h2.534L79.192,135H76.659l3.061-8.366Z"/>
      <path id="Path_109" data-name="Path 109" class="cls-3" d="M57.383,111.166a8.6,8.6,0,0,1,2.563-1.663,8.182,8.182,0,0,1,3.013-.516,7.73,7.73,0,0,1,3.966,1.121,6.977,6.977,0,0,1,2.957,3.62l.2.554h2.585l-.393-1.113a9.449,9.449,0,0,0-4.133-5.063,10.576,10.576,0,0,0-5.31-1.449A9.833,9.833,0,0,0,52.79,116.678a10.176,10.176,0,0,0,2.6,6.822,10.562,10.562,0,0,0,13.289,1.412,9.471,9.471,0,0,0,3.56-4.618l.407-1.121H70.038l-.192.566a6.661,6.661,0,0,1-2.36,3.07,8.036,8.036,0,0,1-7.577.945,7.481,7.481,0,0,1-2.443-1.57,7.261,7.261,0,0,1-1.684-2.481,8.005,8.005,0,0,1-.587-3.059,8.351,8.351,0,0,1,.61-3.112,6.437,6.437,0,0,1,1.579-2.367"/>
      <path id="Path_110" data-name="Path 110" class="cls-3" d="M48,117.926a6.836,6.836,0,0,1-.368,1.374,7.738,7.738,0,0,1-12.821,2.626,8.02,8.02,0,0,1-1.99-5.279,7.459,7.459,0,0,1,7.636-7.657,7.845,7.845,0,0,1,4.336,1.273,7.23,7.23,0,0,1,2.761,3.409,6.757,6.757,0,0,1,.4,1.319,7.7,7.7,0,0,1,.138,1.486A7.287,7.287,0,0,1,48,117.926m-.009-11.274v3.284a9.343,9.343,0,0,0-1.791-1.559,10.276,10.276,0,0,0-5.743-1.719,9.67,9.67,0,0,0-7.464,3.191,10.259,10.259,0,0,0,0,13.593,9.671,9.671,0,0,0,7.466,3.193,10.088,10.088,0,0,0,5.293-1.4,9.25,9.25,0,0,0,2.242-1.9v3.3h2.4V106.651Z"/>
      <path id="Path_111" data-name="Path 111" class="cls-3" d="M25.771,108.636a6.423,6.423,0,0,0-2.364-1.492,8.812,8.812,0,0,0-6.128.144,7.175,7.175,0,0,0-2.542,1.77,7.015,7.015,0,0,0-.729.947,5.107,5.107,0,0,0-.63-.918,6.483,6.483,0,0,0-2.508-1.816,8.475,8.475,0,0,0-3.261-.614,7.528,7.528,0,0,0-3.1.668,6.92,6.92,0,0,0-2.1,1.479v-2.154H.005v19.981h2.4V115.414a9.3,9.3,0,0,1,.366-2.79,5.409,5.409,0,0,1,1.121-2,4.143,4.143,0,0,1,1.6-1.216,4.571,4.571,0,0,1,2.094-.42,6.461,6.461,0,0,1,2.45.512,4.348,4.348,0,0,1,1.654,1.29,4.8,4.8,0,0,1,.82,1.582,9.293,9.293,0,0,1,.307,2.679l-.006,11.58h2.4V115.58a12.79,12.79,0,0,1,.226-2.908,4.945,4.945,0,0,1,.99-1.94,4.24,4.24,0,0,1,1.854-1.338,6.425,6.425,0,0,1,4.261-.071,3.886,3.886,0,0,1,1.487.951,4.881,4.881,0,0,1,1.168,2.038,11.206,11.206,0,0,1,.416,3.269v11.052h2.4V115.58a13.557,13.557,0,0,0-.541-4.034,6.884,6.884,0,0,0-1.709-2.91"/>
      <path id="Path_112" data-name="Path 112" class="cls-4" d="M51.057,0l-12,36.651H0L31.643,59.431,19.658,96.1,51.009,73.415,82.543,96.206,70.5,59.372,102,36.651H63.064Z"/>
    </g>
  </g>
</svg>
