<svg xmlns="http://www.w3.org/2000/svg" width="72" height="20.329" viewBox="0 0 72 20.329">
  <defs>
    <style>
      .cls-1 {
        fill: #fff;
      }
    </style>
  </defs>
  <g id="Macy_s_Logo_White" data-name="Macy&apos;s Logo White" transform="translate(-17.611 -3.279)">
    <path id="Path_50" data-name="Path 50" class="cls-1" d="M88.574,14.741a5.18,5.18,0,0,0-1.842-.766l-.071-.019a3.448,3.448,0,0,1-1.314-.58,1.241,1.241,0,0,1-.408-.96,1.5,1.5,0,0,1,.083-.574,1.338,1.338,0,0,1,.288-.469,1.46,1.46,0,0,1,.53-.353,1.976,1.976,0,0,1,.729-.129,1.719,1.719,0,0,1,.646.1,1.33,1.33,0,0,1,.481.3,1.3,1.3,0,0,1,.294.461,1.9,1.9,0,0,1,.115.652l.007.429h1.241l-.006-.443a2.718,2.718,0,0,0-.79-1.956,2.853,2.853,0,0,0-2-.757,3.026,3.026,0,0,0-1.942.66,2.641,2.641,0,0,0-.917,2.11,2.354,2.354,0,0,0,.874,1.907,5.464,5.464,0,0,0,1.89.828,2.946,2.946,0,0,1,1.482.668,1.618,1.618,0,0,1,.422,1.168v.062a1.874,1.874,0,0,1-.127.692,1.72,1.72,0,0,1-.362.566,1.688,1.688,0,0,1-.579.389,1.975,1.975,0,0,1-.741.138,1.954,1.954,0,0,1-1.4-.516,1.925,1.925,0,0,1-.54-1.379l-.007-.43-1.22.007-.022.552a2.929,2.929,0,0,0,.195,1.061,2.847,2.847,0,0,0,.572.9,3.182,3.182,0,0,0,1.092.751,3.505,3.505,0,0,0,1.334.263,3.168,3.168,0,0,0,1.236-.247,2.991,2.991,0,0,0,1.018-.71,2.917,2.917,0,0,0,.624-1.016,2.966,2.966,0,0,0,.17-1.186,2.733,2.733,0,0,0-1.032-2.179"/>
    <path id="Path_51" data-name="Path 51" class="cls-1" d="M83.253,4.814H81.636l1.31.952L82.456,7.3l1.293-.948,1.3.951-.5-1.539,1.307-.951H84.247l-.494-1.535Z"/>
    <path id="Path_52" data-name="Path 52" class="cls-1" d="M78.4,17.858l-3.247-8.18H73.807l.348.885c.028.073.925,2.347,1.815,4.6l1.715,4.343-1.79,4.1h1.383l5.6-13.037.359-.894H81.847Z"/>
    <path id="Path_53" data-name="Path 53" class="cls-1" d="M66.1,12.026a4.447,4.447,0,0,1,1.324-.866,4.2,4.2,0,0,1,1.556-.269,3.971,3.971,0,0,1,2.049.584,3.63,3.63,0,0,1,1.527,1.885l.1.288H73.99l-.2-.58a4.909,4.909,0,0,0-2.135-2.636,5.433,5.433,0,0,0-2.743-.755,5.158,5.158,0,0,0-3.7,1.5,5.221,5.221,0,0,0-1.488,3.721,5.321,5.321,0,0,0,1.343,3.552,5.423,5.423,0,0,0,6.864.735,4.925,4.925,0,0,0,1.839-2.4l.21-.584H72.632l-.1.295a3.466,3.466,0,0,1-1.219,1.6,4.124,4.124,0,0,1-3.914.492,3.859,3.859,0,0,1-1.262-.817,3.784,3.784,0,0,1-.87-1.291,4.2,4.2,0,0,1-.3-1.593,4.377,4.377,0,0,1,.315-1.62,3.354,3.354,0,0,1,.816-1.232"/>
    <path id="Path_54" data-name="Path 54" class="cls-1" d="M61.253,9.678v1.707a4.833,4.833,0,0,0-.925-.812,5.275,5.275,0,0,0-2.967-.895,4.978,4.978,0,0,0-3.855,1.661,5.373,5.373,0,0,0,0,7.077,4.979,4.979,0,0,0,3.857,1.662,5.182,5.182,0,0,0,2.734-.727,4.794,4.794,0,0,0,1.158-.99v1.716h1.242V9.678Zm0,5.866a3.584,3.584,0,0,1-.19.716,3.9,3.9,0,0,1-1.4,1.907,4.093,4.093,0,0,1-5.219-.54,4.2,4.2,0,0,1-1.028-2.748,4.006,4.006,0,0,1,1.127-2.849,3.92,3.92,0,0,1,2.818-1.137,4.028,4.028,0,0,1,2.239.663,3.755,3.755,0,0,1,1.426,1.774,3.545,3.545,0,0,1,.207.687,4.049,4.049,0,0,1,.071.774,3.814,3.814,0,0,1-.047.754"/>
    <path id="Path_55" data-name="Path 55" class="cls-1" d="M49.786,10.708a3.313,3.313,0,0,0-1.221-.776,4.521,4.521,0,0,0-3.165.074,3.7,3.7,0,0,0-1.313.922,3.617,3.617,0,0,0-.377.493,2.651,2.651,0,0,0-.325-.478,3.347,3.347,0,0,0-1.3-.945,4.347,4.347,0,0,0-1.684-.319,3.863,3.863,0,0,0-1.6.347,3.586,3.586,0,0,0-1.084.77V9.678H36.477v10.4h1.242v-5.84a4.868,4.868,0,0,1,.189-1.452,2.82,2.82,0,0,1,.579-1.041,2.147,2.147,0,0,1,.825-.633,2.353,2.353,0,0,1,1.082-.218,3.31,3.31,0,0,1,1.265.266,2.245,2.245,0,0,1,.854.672,2.5,2.5,0,0,1,.424.824,4.875,4.875,0,0,1,.159,1.4l0,6.028h1.242V14.323a6.716,6.716,0,0,1,.116-1.514,2.594,2.594,0,0,1,.511-1.01,2.191,2.191,0,0,1,.958-.7,3.291,3.291,0,0,1,2.2-.037,2,2,0,0,1,.768.5,2.539,2.539,0,0,1,.6,1.061,5.869,5.869,0,0,1,.215,1.7v5.754h1.241V14.323a7.123,7.123,0,0,0-.279-2.1,3.592,3.592,0,0,0-.883-1.515"/>
    <path id="Path_56" data-name="Path 56" class="cls-1" d="M26.432,3.279l-2.072,6.4H17.611l5.467,3.978-2.071,6.4L26.423,16.1l5.448,3.979L29.79,13.645l5.443-3.967H28.506Z"/>
  </g>
</svg>
