<svg id="Macy_s_Logo_Black_Red" data-name="Macy&apos;s Logo Black + Red" xmlns="http://www.w3.org/2000/svg" xmlns:xlink="http://www.w3.org/1999/xlink" width="59.999" height="79.847" viewBox="0 0 59.999 79.847">
  <defs>
    <style>
      .cls-1 {
        fill: none;
      }

      .cls-2 {
        clip-path: url(#clip-path);
      }

      .cls-3 {
        fill: #1a1818;
      }

      .cls-4 {
        fill: #d6001e;
      }
    </style>
    <clipPath id="clip-path">
      <rect id="Rectangle_12" data-name="Rectangle 12" class="cls-1" width="59.999" height="79.847"/>
    </clipPath>
  </defs>
  <g id="Group_24" data-name="Group 24">
    <g id="Group_23" data-name="Group 23" class="cls-2">
      <path id="Path_162" data-name="Path 162" class="cls-3" d="M58.817,68.836a5.908,5.908,0,0,0-2.1-.871l-.081-.021a3.938,3.938,0,0,1-1.5-.659,1.411,1.411,0,0,1-.465-1.091,1.706,1.706,0,0,1,.094-.652,1.51,1.51,0,0,1,.329-.532,1.66,1.66,0,0,1,.6-.4,2.256,2.256,0,0,1,.831-.146,1.958,1.958,0,0,1,.736.116,1.517,1.517,0,0,1,.548.339,1.481,1.481,0,0,1,.334.524,2.155,2.155,0,0,1,.131.741l.008.487H59.7l-.007-.5a3.082,3.082,0,0,0-.9-2.222,3.253,3.253,0,0,0-2.277-.86,3.452,3.452,0,0,0-2.212.75,3,3,0,0,0-1.044,2.4,2.673,2.673,0,0,0,1,2.167,6.242,6.242,0,0,0,2.152.94A3.36,3.36,0,0,1,58.1,70.1a1.834,1.834,0,0,1,.481,1.327l0,.07a2.123,2.123,0,0,1-.145.786,1.95,1.95,0,0,1-.412.644,1.93,1.93,0,0,1-.659.442,2.258,2.258,0,0,1-.843.157,2.23,2.23,0,0,1-1.6-.586,2.184,2.184,0,0,1-.615-1.567l-.008-.489-1.389.008-.026.628a3.32,3.32,0,0,0,.222,1.206,3.241,3.241,0,0,0,.652,1.028A3.62,3.62,0,0,0,55,74.6a4,4,0,0,0,1.519.3,3.612,3.612,0,0,0,1.407-.28,3.405,3.405,0,0,0,1.159-.807,3.3,3.3,0,0,0,.711-1.154,3.366,3.366,0,0,0,.194-1.347,3.1,3.1,0,0,0-1.176-2.476"/>
      <path id="Path_163" data-name="Path 163" class="cls-3" d="M52.965,58.126H51.123l1.492,1.082-.558,1.743,1.473-1.076,1.482,1.08-.565-1.748,1.488-1.081H54.1l-.563-1.744Z"/>
      <path id="Path_164" data-name="Path 164" class="cls-3" d="M42.595,63.09h1.491l3.553,9.762,3.557-9.771h1.491l-6.1,16.767h-1.49l1.8-4.948Z"/>
      <path id="Path_165" data-name="Path 165" class="cls-3" d="M33.754,65.75a5.058,5.058,0,0,1,1.508-.984,4.789,4.789,0,0,1,1.772-.305,4.529,4.529,0,0,1,2.333.663,4.122,4.122,0,0,1,1.739,2.141l.117.328h1.521l-.231-.658a5.582,5.582,0,0,0-2.431-2.995,6.2,6.2,0,0,0-3.123-.857,5.8,5.8,0,0,0-5.906,5.928,6.038,6.038,0,0,0,1.529,4.035,6.187,6.187,0,0,0,7.817.835,5.6,5.6,0,0,0,2.094-2.732l.24-.663H41.2l-.113.335A3.937,3.937,0,0,1,39.7,72.638a4.7,4.7,0,0,1-4.457.559,4.4,4.4,0,0,1-1.437-.929,4.3,4.3,0,0,1-.991-1.468,4.757,4.757,0,0,1-.345-1.809,4.963,4.963,0,0,1,.359-1.84,3.808,3.808,0,0,1,.929-1.4"/>
      <path id="Path_166" data-name="Path 166" class="cls-3" d="M28.234,69.749a4.061,4.061,0,0,1-.217.812,4.54,4.54,0,0,1-7.542,1.553,4.759,4.759,0,0,1-1.171-3.122,4.547,4.547,0,0,1,1.283-3.237A4.471,4.471,0,0,1,23.8,64.463a4.6,4.6,0,0,1,2.55.753,4.271,4.271,0,0,1,1.624,2.016,4.013,4.013,0,0,1,.235.78,4.576,4.576,0,0,1,.081.879,4.334,4.334,0,0,1-.054.857m-.005-6.668v1.943a5.5,5.5,0,0,0-1.054-.922A6.021,6.021,0,0,0,23.8,63.084a5.675,5.675,0,0,0-4.39,1.887,6.093,6.093,0,0,0,0,8.04A5.676,5.676,0,0,0,23.8,74.9a5.909,5.909,0,0,0,3.113-.826,5.449,5.449,0,0,0,1.319-1.125V74.9h1.414V63.08Z"/>
      <path id="Path_167" data-name="Path 167" class="cls-3" d="M15.159,64.254a3.775,3.775,0,0,0-1.391-.882,5.157,5.157,0,0,0-3.6.085,4.22,4.22,0,0,0-1.5,1.047,4.147,4.147,0,0,0-.429.56,3.021,3.021,0,0,0-.37-.543,3.814,3.814,0,0,0-1.475-1.074,4.961,4.961,0,0,0-1.918-.363,4.407,4.407,0,0,0-1.824.4,4.071,4.071,0,0,0-1.235.875V63.08H0V74.9H1.418V68.263a5.528,5.528,0,0,1,.215-1.65,3.2,3.2,0,0,1,.659-1.183,2.438,2.438,0,0,1,.939-.719,2.676,2.676,0,0,1,1.232-.248,3.783,3.783,0,0,1,1.441.3,2.559,2.559,0,0,1,.973.763,2.847,2.847,0,0,1,.482.936,5.525,5.525,0,0,1,.181,1.585l0,6.849H8.95V68.361a7.605,7.605,0,0,1,.133-1.72,2.931,2.931,0,0,1,.582-1.147,2.5,2.5,0,0,1,1.091-.792,3.76,3.76,0,0,1,2.507-.042,2.285,2.285,0,0,1,.875.562,2.891,2.891,0,0,1,.687,1.205,6.662,6.662,0,0,1,.245,1.934V74.9h1.413V68.361a8.06,8.06,0,0,0-.318-2.386,4.076,4.076,0,0,0-1.005-1.721"/>
      <path id="Path_168" data-name="Path 168" class="cls-4" d="M30.033,0,22.976,21.678H0L18.613,35.151l-7.05,21.69L30,43.422,48.554,56.9,41.467,35.116,60,21.678H37.1Z"/>
    </g>
  </g>
</svg>
